:version 1.10
:name ASF
:units
  mass 1
  length 1
  angle deg
:documentation
  ASF file generated by Kaydara
:root
  axis xyz
  order  tx ty tz rx ry rz
  position 0 0 0
  orientation 0 0 0
:bonedata
  begin
    id 1
    name SpineDummy
    direction 0.999998 -0.00179978 1.38929e-006
    length 3.60008
    axis 0 0 0 xyz
  end
  begin
    id 2
    name Spine
    direction 0.964365 0.262802 0.0305839
    length 8.13928
    axis 1.33928 -1.75354 15.2838 xyz
    dof rx ry rz
  end
  begin
    id 3
    name Spine1
    direction 0.811168 0.572065 0.12144
    length 7.14954
    axis 2.2224 -6.9761 35.2157 xyz
    dof rx ry rz
  end
  begin
    id 4
    name Neck
    direction 0 0 0
    length 0
    axis 2.2224 -6.9761 35.2157 xyz
    dof rx ry rz
  end
  begin
    id 5
    name HeadDummy
    direction 0.810939 0.572387 0.121455
    length 3.55534
    axis 2.2224 -6.9761 35.2157 xyz
  end
  begin
    id 6
    name Head
    direction 0.998226 -0.000232542 0.0595419
    length 7.35666
    axis -3.03688 -3.41352 -0.0133467 xyz
    dof rx ry rz
  end
  begin
    id 7
    name R_ClavicleDummy
    direction 0.531669 -0.194489 -0.824319
    length 2.49392
    axis 2.2224 -6.9761 35.2157 xyz
  end
  begin
    id 8
    name R_Clavicle
    direction -0.155119 0.0480802 -0.986725
    length 4.485
    axis -54.2764 80.6538 162.779 xyz
    dof rx ry rz
  end
  begin
    id 9
    name R_UpperArm
    direction -0.955567 0.200068 -0.216484
    length 10.1122
    axis -72.9943 12.5026 168.175 xyz
    dof rx ry rz
  end
  begin
    id 10
    name R_Forearm
    direction -0.61433 0.385743 0.688332
    length 9.39148
    axis -117.015 -43.4982 147.875 xyz
    dof rx ry rz
  end
  begin
    id 11
    name R_Hand
    direction -0.699429 0.0170333 0.714499
    length 3.66324
    axis -45.0303 -36.7097 175.478 xyz
    dof rx ry rz
  end
  begin
    id 12
    name L_ClavicleDummy
    direction 0.40287 -0.36502 0.839319
    length 2.49392
    axis 2.2224 -6.9761 35.2157 xyz
  end
  begin
    id 13
    name L_Clavicle
    direction -0.231271 -0.0726419 0.970174
    length 4.485
    axis 18.4357 -75.9711 -162.563 xyz
    dof rx ry rz
  end
  begin
    id 14
    name L_UpperArm
    direction -0.917494 0.144359 0.370629
    length 10.1122
    axis 56.0417 -21.7544 171.058 xyz
    dof rx ry rz
  end
  begin
    id 15
    name L_Forearm
    direction -0.496786 0.615074 -0.612281
    length 9.39148
    axis 89.8094 37.7546 128.927 xyz
    dof rx ry rz
  end
  begin
    id 16
    name L_Hand
    direction -0.409932 0.64962 -0.640274
    length 3.66324
    axis -0.424369 32.133 128.52 xyz
    dof rx ry rz
  end
  begin
    id 17
    name L_ThighDummy
    direction -1.84081e-006 1.87549e-006 1
    length 3.13049
    axis 0 0 0 xyz
  end
  begin
    id 18
    name L_Thigh
    direction -0.947739 0.307978 0.083308
    length 17.9961
    axis 173.219 -4.77873 161.998 xyz
    dof rx ry rz
  end
  begin
    id 19
    name L_Calf
    direction -0.728814 -0.684427 0.0197583
    length 13.3367
    axis 167.331 -1.13214 -136.799 xyz
    dof rx ry rz
  end
  begin
    id 20
    name L_Foot
    direction -0.9028 0.418719 0.0981191
    length 5.8674
    axis 163.436 11.5135 -155.37 xyz
    dof rx ry rz
  end
  begin
    id 21
    name L_Toe0
    direction -0.35341 0.886259 0.299411
    length 4.75286
    axis 169.316 -17.4222 111.74 xyz
    dof rx ry rz
  end
  begin
    id 22
    name R_ThighDummy
    direction 9.32778e-007 -8.82053e-007 -1
    length 3.13049
    axis 0 0 0 xyz
  end
  begin
    id 23
    name R_Thigh
    direction -0.925064 0.37528 -0.0585023
    length 17.9961
    axis -178.698 3.35385 157.919 xyz
    dof rx ry rz
  end
  begin
    id 24
    name R_Calf
    direction -0.68969 -0.718776 -0.0876886
    length 13.3367
    axis -160.504 5.03065 -133.817 xyz
    dof rx ry rz
  end
  begin
    id 25
    name R_Foot
    direction -0.857405 0.418858 -0.299022
    length 5.8674
    axis -161.328 4.38911 -154.413 xyz
    dof rx ry rz
  end
  begin
    id 26
    name R_Toe0
    direction -0.100745 0.952789 -0.286433
    length 4.75286
    axis 171.683 16.6445 96.0359 xyz
    dof rx ry rz
  end
:hierarchy
  begin
    root SpineDummy L_ThighDummy R_ThighDummy
    SpineDummy Spine
    Spine Spine1
    Spine1 Neck
    Neck HeadDummy R_ClavicleDummy L_ClavicleDummy
    HeadDummy Head
    R_ClavicleDummy R_Clavicle
    R_Clavicle R_UpperArm
    R_UpperArm R_Forearm
    R_Forearm R_Hand
    L_ClavicleDummy L_Clavicle
    L_Clavicle L_UpperArm
    L_UpperArm L_Forearm
    L_Forearm L_Hand
    L_ThighDummy L_Thigh
    L_Thigh L_Calf
    L_Calf L_Foot
    L_Foot L_Toe0
    R_ThighDummy R_Thigh
    R_Thigh R_Calf
    R_Calf R_Foot
    R_Foot R_Toe0
  end

:SAMPLES-PER-SECOND 30
:FULLY-SPECIFIED
:DEGREES
297
root  -7.27009 30.8177 -73.832 -136.705 -5.79479 92.8877
Spine  -4.91372 -10.6152 -3.89503
Spine1  -2.04388 17.9014 7.29294
Neck  3.97569e-016 0 -2.38542e-015
Head  -26.0038 -4.74025 9.45242
R_Clavicle  0.325793 -15.5612 0.573556
R_UpperArm  4.59341 -2.2559 25.2421
R_Forearm  31.7408 -27.24 20.0528
R_Hand  -1.19973 8.82034 -20.4877
L_Clavicle  -0.300495 12.5091 -1.63143
L_UpperArm  -10.7862 -6.90187 -7.03722
L_Forearm  -10.9044 3.03318 3.49629
L_Hand  -0.252129 1.14161 -4.21164
L_Thigh  -35.6418 6.77956 -3.08901
L_Calf  -6.98662 -0.879591 7.26203
L_Foot  6.63687 9.26866 14.8771
L_Toe0  0.505156 0.0309292 -6.13613
R_Thigh  4.31298 -0.440427 4.49747
R_Calf  -2.59662 4.38082 13.6967
R_Foot  -0.0257675 -0.374572 -0.763706
R_Toe0  -2.15574 -0.217981 -15.9877
298
root  -7.53446 30.9053 -74.0942 -142.68 -5.24637 92.8089
Spine  -6.28571 -12.2964 -4.81857
Spine1  -3.04995 19.0776 8.13391
Neck  3.97569e-016 0 -2.38542e-015
Head  -30.3972 -5.30045 10.1728
R_Clavicle  0.341728 -15.2913 0.882776
R_UpperArm  2.13534 -3.36454 26.9676
R_Forearm  36.1562 -23.0639 20.1807
R_Hand  -1.01328 8.34218 -19.0496
L_Clavicle  -0.350706 13.2861 -0.934929
L_UpperArm  -7.25379 -11.1075 -6.2694
L_Forearm  -8.89824 2.28627 2.63086
L_Hand  -0.222217 1.47131 -3.50047
L_Thigh  -39.7889 7.2002 -4.25067
L_Calf  -8.58757 -0.978085 8.04731
L_Foot  6.37948 8.4216 15.0764
L_Toe0  0.505156 0.03163 -6.13612
R_Thigh  8.10201 -2.20378 6.42881
R_Calf  -0.819457 3.9732 12.3787
R_Foot  0.631093 1.24637 -2.6075
R_Toe0  -3.55625 -0.173157 -15.8529
299
root  -7.65717 31.2207 -74.4237 -149.258 -4.86058 92.5464
Spine  -7.26969 -12.8953 -5.69321
Spine1  -4.27392 19.1344 7.06452
Neck  3.97569e-016 0 -2.38542e-015
Head  -33.7649 -6.30427 11.3679
R_Clavicle  0.354837 -15.4741 1.0607
R_UpperArm  5.06709 -4.58132 29.2154
R_Forearm  33.995 -22.2048 19.7858
R_Hand  -0.767301 8.33233 -17.1899
L_Clavicle  -0.362785 13.4295 -0.649766
L_UpperArm  -5.58597 -12.0894 -4.15734
L_Forearm  -6.36844 2.32087 2.67148
L_Hand  -0.113659 2.01828 -1.60681
L_Thigh  -43.9108 6.85852 -6.33032
L_Calf  -10.5676 -1.35505 10.9013
L_Foot  5.73944 7.52645 14.0308
L_Toe0  0.505156 0.0324966 -6.13611
R_Thigh  10.4275 -3.19166 7.43234
R_Calf  0.991183 3.70252 11.5073
R_Foot  0.380803 0.601395 -1.89945
R_Toe0  -1.64579 -0.281053 -17.4492
300
root  -7.58792 31.6783 -74.7107 -156.278 -4.33817 92.7143
Spine  -7.85108 -12.6121 -6.33442
Spine1  -5.38895 18.8875 5.10399
Neck  3.97569e-016 0 -2.38542e-015
Head  -35.5044 -7.12199 13.0046
R_Clavicle  0.348433 -15.6018 0.934642
R_UpperArm  9.82855 -5.99765 31.3389
R_Forearm  31.1241 -22.8957 20.1108
R_Hand  -0.690293 8.34152 -16.6117
L_Clavicle  -0.32969 12.6634 -0.874607
L_UpperArm  -5.81529 -10.3235 -1.26814
L_Forearm  -4.8204 3.01436 3.47602
L_Hand  0.00940552 2.16644 0.22834
L_Thigh  -46.8539 6.36339 -9.24647
L_Calf  -12.0745 -1.93182 15.1324
L_Foot  4.91314 6.67429 12.1993
L_Toe0  0.509247 0.0338899 -6.17576
R_Thigh  11.704 -3.11732 7.29183
R_Calf  1.58651 3.97412 12.3582
R_Foot  0.251424 0.0355898 -2.11159
R_Toe0  -1.78853 -0.272788 -17.3235
301
root  -7.33165 32.1462 -74.8944 -163.176 -3.72073 93.0976
Spine  -8.14921 -12.4472 -7.30722
Spine1  -6.14349 19.1372 3.64072
Neck  3.97569e-016 0 -2.38542e-015
Head  -35.4845 -7.35899 14.8469
R_Clavicle  0.33187 -15.5827 0.667751
R_UpperArm  16.1336 -7.10746 33.0551
R_Forearm  28.6821 -24.5926 20.5986
R_Hand  -0.754923 8.28258 -17.0843
L_Clavicle  -0.291234 11.9338 -1.18859
L_UpperArm  -5.59901 -7.87641 1.25243
L_Forearm  -4.78752 4.48777 5.19007
L_Hand  0.0454775 1.77568 0.798409
L_Thigh  -46.1055 5.52669 -12.6713
L_Calf  -11.2967 -2.58105 19.7752
L_Foot  4.14419 6.01855 10.2041
L_Toe0  0.479489 0.0321691 -5.89067
R_Thigh  12.2651 -2.47838 6.10982
R_Calf  1.45553 4.93995 15.4536
R_Foot  -0.133162 -1.47398 -2.29057
R_Toe0  -1.78853 -0.272788 -17.3235
302
root  -6.96274 32.535 -74.992 -169.36 -3.22182 93.3186
Spine  -8.42387 -12.854 -8.94461
Spine1  -6.69146 20.128 3.10205
Neck  3.97569e-016 0 -2.38542e-015
Head  -33.9541 -7.36779 16.7029
R_Clavicle  0.339379 -15.6983 0.76556
R_UpperArm  22.5736 -7.02688 34.2816
R_Forearm  26.56 -27.0758 20.9582
R_Hand  -0.827708 8.16434 -17.61
L_Clavicle  -0.286168 11.9587 -1.35866
L_UpperArm  -3.88137 -6.13973 3.24357
L_Forearm  -5.3103 6.54963 7.60965
L_Hand  0.0181457 1.71285 0.362963
L_Thigh  -39.2527 4.51985 -15.7819
L_Calf  -7.45887 -3.05167 23.1722
L_Foot  3.37195 5.588 7.81202
L_Toe0  0.236811 0.019132 -3.51932
R_Thigh  11.7208 -2.04174 4.38432
R_Calf  1.58198 6.56088 20.7975
R_Foot  -0.677554 -3.30713 -1.91635
R_Toe0  -1.78853 -0.272788 -17.3235
303
root  -6.54923 32.7244 -75.0465 -174.966 -3.0622 93.421
Spine  -8.8239 -13.5415 -10.5977
Spine1  -7.31556 21.3964 2.61818
Neck  3.97569e-016 0 -2.38542e-015
Head  -31.3056 -7.63362 18.58
R_Clavicle  0.372545 -15.5633 1.33712
R_UpperArm  27.5513 -6.35428 34.9811
R_Forearm  25.0612 -29.1343 21.2599
R_Hand  -0.844238 8.03031 -17.7077
L_Clavicle  -0.288923 12.2261 -1.60064
L_UpperArm  -1.83042 -4.77006 5.32275
L_Forearm  -5.45441 8.6371 10.0943
L_Hand  -0.0199784 2.42035 -0.176042
L_Thigh  -27.4735 3.48298 -18.5298
L_Calf  -2.36562 -3.29388 25.0464
L_Foot  2.89735 5.47055 6.12071
L_Toe0  -0.156659 0.0118327 0.458931
R_Thigh  10.0119 -2.15821 2.56851
R_Calf  2.75004 8.48934 27.4683
R_Foot  -1.20117 -4.84337 -1.20552
R_Toe0  -1.78853 -0.272788 -17.3235
304
root  -6.11531 32.6234 -75.0652 179.04 -3.3474 93.7034
Spine  -9.09228 -13.8959 -11.6857
Spine1  -7.92805 21.7919 1.4999
Neck  3.97569e-016 0 -2.38542e-015
Head  -28.0868 -7.8341 20.2972
R_Clavicle  0.398912 -14.588 1.81202
R_UpperArm  28.8587 -6.70745 35.3385
R_Forearm  25.8471 -28.518 21.3544
R_Hand  -0.794597 8.1759 -17.358
L_Clavicle  -0.262843 11.9252 -1.96192
L_UpperArm  -0.0734714 -3.27179 7.5349
L_Forearm  -5.43213 10.3102 12.119
L_Hand  -0.0373077 3.01791 -0.365866
L_Thigh  -16.2078 1.76086 -22.4682
L_Calf  0.0755766 -3.90813 28.2829
L_Foot  3.24346 5.64288 7.24795
L_Toe0  -0.249247 0.0126464 1.67008
R_Thigh  7.99141 -2.84356 1.75962
R_Calf  4.16346 9.7747 32.2345
R_Foot  -1.11488 -5.06115 -2.20118
R_Toe0  -1.78853 -0.272788 -17.3235
305
root  -5.69515 32.3027 -75.0371 172.006 -3.80334 94.1612
Spine  -8.90325 -13.429 -12.3639
Spine1  -8.15613 20.8188 0.162401
Neck  3.97569e-016 0 -2.38542e-015
Head  -24.5962 -7.53721 21.0488
R_Clavicle  0.406268 -13.2712 1.9527
R_UpperArm  26.4293 -7.62333 35.379
R_Forearm  28.7534 -25.2127 20.9004
R_Hand  -0.695569 8.6651 -16.7415
L_Clavicle  -0.244409 11.5002 -1.92387
L_UpperArm  1.75169 -2.17257 9.48465
L_Forearm  -5.14168 11.3784 13.43
L_Hand  -0.00496481 2.88582 0.054758
L_Thigh  -10.485 -0.0382832 -26.9031
L_Calf  -1.7255 -5.41426 31.8366
L_Foot  3.91494 5.56654 9.91101
L_Toe0  -0.0968813 0.00756207 0.30646
R_Thigh  7.69095 -3.83032 3.88243
R_Calf  4.30366 9.36465 30.889
R_Foot  -0.2273 -3.9128 -5.98548
R_Toe0  -1.78853 -0.272788 -17.3235
306
root  -5.33134 31.8787 -74.9564 164.554 -3.93485 94.5319
Spine  -8.48445 -12.6678 -12.3887
Spine1  -8.00504 20.3092 -0.772387
Neck  3.97569e-016 0 -2.38542e-015
Head  -20.4137 -7.41623 19.7572
R_Clavicle  0.43662 -12.6414 2.31119
R_UpperArm  24.0476 -6.40834 34.2338
R_Forearm  30.1296 -22.2662 19.8515
R_Hand  -0.616041 8.88767 -16.2243
L_Clavicle  -0.305406 12.3291 -1.26929
L_UpperArm  2.1256 -1.60047 11.5326
L_Forearm  -3.35636 12.1592 14.3981
L_Hand  0.0303186 2.84565 0.529655
L_Thigh  -11.143 -1.45963 -29.852
L_Calf  -5.59034 -7.16311 33.0734
L_Foot  4.2912 4.55473 12.7013
L_Toe0  0.0422534 0.00954205 -1.32549
R_Thigh  10.8297 -4.45752 6.55472
R_Calf  4.3614 8.46666 27.7327
R_Foot  -0.510316 -5.61335 -6.75473
R_Toe0  -1.78853 -0.272788 -17.3235
307
root  -5.00498 31.409 -74.7856 157.899 -3.41932 94.9107
Spine  -8.34622 -12.7707 -11.0693
Spine1  -7.78142 22.5178 -0.932629
Neck  3.97569e-016 0 -2.38542e-015
Head  -15.2162 -8.14698 16.4297
R_Clavicle  0.493339 -12.9605 2.98599
R_UpperArm  23.0119 -2.21423 30.9736
R_Forearm  29.687 -21.3809 18.9709
R_Hand  -0.654624 8.59472 -16.4161
L_Clavicle  -0.406409 14.6729 -0.619037
L_UpperArm  -1.31943 -0.0826824 14.2518
L_Forearm  -0.803446 13.7105 16.3537
L_Hand  -0.0527769 3.22793 -0.563799
L_Thigh  -16.5177 -2.26573 -30.7389
L_Calf  -6.98083 -6.54258 30.3797
L_Foot  4.11661 2.34062 15.3065
L_Toe0  0.0298224 0.0111199 -1.39111
R_Thigh  15.1301 -4.67568 8.51686
R_Calf  5.35363 7.30398 23.629
R_Foot  -1.1166 -6.81355 -4.78858
R_Toe0  -1.78853 -0.272788 -17.3235
308
root  -4.62761 30.958 -74.4354 152.467 -2.31268 95.5598
Spine  -8.41352 -13.2642 -9.07319
Spine1  -7.3947 25.8513 0.0340925
Neck  3.97569e-016 0 -2.38542e-015
Head  -10.1796 -8.8495 13.1111
R_Clavicle  0.496544 -13.8285 3.11607
R_UpperArm  22.3404 1.81122 26.5794
R_Forearm  30.003 -21.1395 18.7107
R_Hand  -0.840549 8.44518 -17.7738
L_Clavicle  -0.483199 16.8965 -0.622066
L_UpperArm  -7.24903 3.58328 16.7968
L_Forearm  -1.21728 16.8591 20.4761
L_Hand  -0.259064 2.69336 -3.38769
L_Thigh  -22.2008 -2.60806 -30.5386
L_Calf  -6.48725 -3.13637 24.996
L_Foot  3.13466 -0.856181 16.5385
L_Toe0  -0.196866 0.00807996 1.0919
R_Thigh  17.1772 -3.99454 8.57521
R_Calf  7.35194 5.8819 18.7289
R_Foot  -1.39949 -6.04503 -1.97815
R_Toe0  -1.78853 -0.272788 -17.3235
309
root  -4.18116 30.5921 -73.8556 147.622 -0.945032 95.9907
Spine  -7.99053 -11.9389 -8.36503
Spine1  -6.59809 26.1137 1.75691
Neck  3.97569e-016 0 -2.38542e-015
Head  -7.24509 -8.58587 12.279
R_Clavicle  0.449165 -14.8918 2.548
R_UpperArm  23.1095 2.40368 23.2868
R_Forearm  30.6361 -19.732 17.309
R_Hand  -1.07838 8.52121 -19.5559
L_Clavicle  -0.512698 17.581 -0.953557
L_UpperArm  -10.6554 8.14437 18.2236
L_Forearm  -6.91183 21.1649 26.5746
L_Hand  -0.308393 0.528422 -5.73215
L_Thigh  -20.2972 -2.14509 -29.1074
L_Calf  -10.8063 -2.27934 16.9936
L_Foot  1.00345 -5.16321 13.8831
L_Toe0  -0.677013 -0.0488797 8.45056
R_Thigh  16.9613 -2.22837 6.85673
R_Calf  7.46591 4.37178 13.7909
R_Foot  -1.45536 -4.01106 1.99383
R_Toe0  -1.78853 -0.272788 -17.3235
310
root  -3.74143 30.304 -73.1095 142.469 0.278607 95.4196
Spine  -6.71637 -8.12794 -9.29108
Spine1  -5.49079 22.5427 2.80841
Neck  3.97569e-016 0 -2.38542e-015
Head  -6.37369 -8.04997 13.6048
R_Clavicle  0.429088 -16.411 2.26409
R_UpperArm  23.5687 0.646871 21.6572
R_Forearm  30.2282 -16.0081 13.7581
R_Hand  -1.11389 8.06382 -19.8009
L_Clavicle  -0.510604 17.5205 -0.969959
L_UpperArm  -8.68566 11.552 19.6579
L_Forearm  -14.4739 25.0686 32.5434
L_Hand  -0.156913 -1.94424 -5.24779
L_Thigh  -20.0775 -0.0912362 -25.5444
L_Calf  -12.1862 -0.869118 6.35722
L_Foot  -1.27241 -7.59686 5.40276
L_Toe0  -3.93834 1.55667 20.7017
R_Thigh  15.7895 0.614344 5.06096
R_Calf  5.01091 3.15868 10.0639
R_Foot  -1.98019 -2.90862 7.80609
R_Toe0  -1.78853 -0.272788 -17.3235
311
root  -3.40611 30.0178 -72.3516 136.791 1.47794 93.9123
Spine  -4.9754 -3.5211 -9.76787
Spine1  -4.07718 18.5253 2.60813
Neck  3.97569e-016 0 -2.38542e-015
Head  -5.57758 -8.39041 14.1443
R_Clavicle  0.440357 -17.9415 2.60358
R_UpperArm  21.4841 -0.381764 19.9618
R_Forearm  27.7675 -10.5028 8.82441
R_Hand  -0.896093 7.06725 -17.9163
L_Clavicle  -0.524116 17.9796 -0.738232
L_UpperArm  -5.74096 13.9272 22.4725
L_Forearm  -15.64 27.6912 35.6924
L_Hand  -0.0677196 -2.04091 -2.03035
L_Thigh  -19.0583 2.05617 -20.1163
L_Calf  -13.2082 0.648792 -4.85602
L_Foot  -1.14129 0.246566 -5.57941
L_Toe0  -13.575 7.33856 24.8865
R_Thigh  14.3045 4.36669 4.47387
R_Calf  2.29087 2.50745 8.17961
R_Foot  -2.78952 -3.68396 11.2215
R_Toe0  -1.78853 -0.272788 -17.3235
